# xmcd
#
# Track frame offsets:
#  150
#  12091
#  22801
#  40691
#  53511
#  64937
#  78455
#  88596
#  100926
#  110666
#  123549
#  134068
#  143907
#  161655
#
# Disc length: 2314 seconds
#
# Revision: 0
# Processed by: cddbd v1.5.1PL2 Copyright (c) Steve Scherf et al.
# Submitted via: Collectorz.com_Music_Collector 6.9
#
DISCID=b709080e
DTITLE=Various Artist - Real R and B Texas
DYEAR=1995
DGENRE=Blues - R&B
TTITLE0=Royal Earl And The Swingin' Kools - Forever Dear
TTITLE1=Royal Earl And The Swingin' Kools - Royal Earl Shuffle
TTITLE2=Buddy Kennedy - I Remember You
TTITLE3=The Four Dudes/The Images - Sad Little Boy
TTITLE4=The Four Dudes/The Images - I'm Beggin' To You
TTITLE5=Royal Earl And The Swingin' Kools - You'll Sho Is Right
TTITLE6=The T-Birds - One More Chance
TTITLE7=The T-Birds - So Sweet
TTITLE8=Mickey Foster - Do It (Part 1)
TTITLE9=Mickey Foster - Do It (Part @)
TTITLE10=Royal Earl And The Swingin' Kools - I'm Not A Fool
TTITLE11=The Four Dudes/The Images - Can't Find Her
TTITLE12=The Four Dudes/The Images - Visions Of Happiness
TTITLE13=Buddy Kennedy - You Can't Beat 'Em
EXTD=
EXTT0=
EXTT1=
EXTT2=
EXTT3=
EXTT4=
EXTT5=
EXTT6=
EXTT7=
EXTT8=
EXTT9=
EXTT10=
EXTT11=
EXTT12=
EXTT13=
PLAYORDER=
